<svg id="Layer_1" data-name="Layer 1" xmlns="http://www.w3.org/2000/svg" width="3.88cm" height="2.28cm" viewBox="0 0 109.88 64.73"><defs><style>.cls-1,.cls-2{fill:#2c5697;}.cls-2{font-size:10px;font-family:Arial-BoldMT, Arial;font-weight:700;}.cls-3{letter-spacing:-0.04em;}</style></defs><rect class="cls-1" x="14.79" y="39.75" width="27.43" height="6.56"/><rect class="cls-1" x="23.96" y="29.57" width="18.26" height="6.27"/><rect class="cls-1" x="10.59" width="6" height="46.31"/><rect class="cls-1" x="23.96" width="18.26" height="6.31"/><rect class="cls-1" x="29.78" y="5.57" width="6.51" height="24.79"/><path class="cls-1" d="M52.07,46.2h-7V0h7Z"/><rect class="cls-1" x="66.12" width="6.6" height="46.4"/><rect class="cls-1" x="75.98" width="6.43" height="46.13"/><path class="cls-1" d="M51.81,29V5.83a78.19,78.19,0,0,0,5,18A29.59,29.59,0,0,0,60,29.57a29.09,29.09,0,0,0,6.25,5.83c.09,2.31.09,4.54.18,6.85a19.1,19.1,0,0,1-6-2.83,26.2,26.2,0,0,1-4.2-4A54.59,54.59,0,0,1,51.81,29Z"/><path class="cls-1" d="M82.15,39.94,76,36.85,92.43,0h6.86C93.55,13.28,87.89,26.57,82.15,39.94Z"/><path class="cls-1" d="M83.86,35.4a32.33,32.33,0,0,0,3.52,4.8c2,2.22,3.08,3.51,5.05,4.54a14.55,14.55,0,0,0,6.35,1.46V39.77a10.06,10.06,0,0,1-5.23-2.06,10.46,10.46,0,0,1-3-4.28A24.63,24.63,0,0,1,88,25.88Z"/><text class="cls-2" transform="translate(7.35 61.72)">YOU<tspan class="cls-3" x="21.67" y="0"> </tspan><tspan x="24.08" y="0">ARE PREMIUM</tspan></text></svg>